<?xml version="1.0" standalone="no"?>
<!DOCTYPE svg PUBLIC "-//W3C//DTD SVG 20010904//EN"
 "http://www.w3.org/TR/2001/REC-SVG-20010904/DTD/svg10.dtd">
<svg version="1.0" xmlns="http://www.w3.org/2000/svg"
 width="512.000000pt" height="512.000000pt" viewBox="0 0 512.000000 512.000000"
 preserveAspectRatio="xMidYMid meet">
<metadata>
Created by potrace 1.14, written by Peter Selinger 2001-2017
</metadata>
<g transform="translate(0.000000,512.000000) scale(0.100000,-0.100000)"
fill="#000000" stroke="none">
<path d="M467 5108 c4 -8 -12 -12 -31 -9 -4 1 -20 -6 -33 -15 -14 -9 -23 -12
-20 -7 4 5 0 10 -8 10 -8 0 -12 -3 -10 -6 2 -4 -8 -11 -21 -18 -18 -8 -22 -8
-17 0 3 7 -3 4 -15 -6 -11 -11 -26 -16 -32 -12 -9 5 -8 0 1 -16 11 -22 11 -23
-5 -10 -15 12 -19 12 -32 -8 -9 -12 -20 -19 -25 -16 -5 4 -9 -1 -9 -9 0 -10
-6 -13 -17 -9 -12 5 -14 3 -8 -7 6 -10 4 -12 -8 -7 -12 5 -19 -1 -23 -18 -3
-14 -10 -23 -14 -20 -4 3 -10 -9 -14 -26 -3 -17 -10 -28 -15 -25 -5 3 -15 -2
-22 -11 -10 -12 -10 -14 -1 -9 22 13 13 -10 -13 -32 -14 -13 -23 -27 -20 -32
3 -6 0 -10 -7 -10 -9 0 -9 -3 2 -10 10 -6 11 -10 2 -10 -6 0 -11 -6 -10 -12 2
-7 -2 -12 -8 -11 -6 1 -10 -8 -9 -20 1 -12 -3 -31 -8 -42 -15 -28 -17 -116 -3
-108 6 3 8 3 4 -2 -4 -4 -3 -17 3 -29 10 -20 10 -20 -6 -2 -15 19 -15 19 -13
-6 1 -15 6 -24 10 -22 4 3 8 0 8 -5 0 -6 -4 -11 -10 -11 -5 0 -9 -11 -8 -24 1
-14 6 -22 10 -20 4 3 8 0 8 -5 0 -6 -5 -11 -11 -11 -8 0 -9 -4 0 -13 6 -8 8
-17 5 -20 -3 -3 -8 -22 -10 -42 -2 -25 0 -34 9 -29 7 4 9 4 5 -1 -4 -4 -3 -17
3 -29 9 -19 9 -20 -4 -3 -14 16 -15 16 -15 -8 0 -13 4 -22 9 -19 5 3 9 0 9 -5
0 -6 -4 -11 -10 -11 -5 0 -9 -11 -8 -24 1 -14 6 -22 10 -20 4 3 8 0 8 -5 0 -6
-5 -11 -11 -11 -8 0 -9 -4 0 -13 6 -8 8 -17 5 -20 -3 -3 -8 -22 -10 -42 -2
-25 0 -34 9 -29 7 4 9 4 5 -1 -4 -4 -3 -17 3 -29 9 -19 9 -20 -4 -3 -14 16
-15 16 -15 -8 0 -13 4 -22 9 -19 5 3 9 0 9 -5 0 -6 -4 -11 -10 -11 -5 0 -9
-11 -8 -24 1 -14 6 -22 10 -20 4 3 8 0 8 -5 0 -6 -5 -11 -11 -11 -8 0 -9 -4 0
-13 6 -8 8 -17 5 -20 -3 -3 -8 -22 -10 -42 -2 -25 0 -34 9 -29 7 4 9 4 5 -1
-4 -4 -3 -17 3 -29 9 -19 9 -20 -4 -3 -14 16 -14 16 -14 -8 0 -13 3 -22 8 -19
5 3 9 0 9 -5 0 -6 -4 -11 -10 -11 -5 0 -9 -11 -8 -24 1 -14 6 -22 10 -20 4 3
8 0 8 -5 0 -6 -5 -11 -11 -11 -8 0 -9 -4 0 -13 6 -8 8 -17 5 -20 -3 -3 -8 -22
-10 -42 -2 -25 0 -34 9 -29 7 4 9 4 5 -1 -4 -4 -3 -17 3 -29 9 -19 9 -20 -4
-3 -14 16 -14 16 -14 -8 0 -13 3 -22 8 -19 5 3 9 0 9 -5 0 -6 -4 -11 -10 -11
-5 0 -9 -11 -8 -24 1 -14 6 -22 10 -20 4 3 8 0 8 -5 0 -6 -5 -11 -11 -11 -8 0
-9 -4 0 -13 6 -8 8 -17 5 -20 -3 -3 -8 -22 -10 -42 -2 -25 0 -34 9 -29 7 4 9
4 5 -1 -4 -4 -3 -17 3 -29 9 -19 9 -20 -4 -3 -14 16 -15 16 -15 -8 0 -13 4
-22 9 -19 5 3 9 0 9 -5 0 -6 -4 -11 -10 -11 -5 0 -9 -11 -8 -24 1 -14 6 -22
10 -20 4 3 8 0 8 -5 0 -6 -5 -11 -11 -11 -8 0 -9 -4 0 -13 6 -8 8 -17 5 -20
-3 -3 -8 -22 -10 -42 -2 -25 0 -34 9 -29 7 4 9 4 5 -1 -4 -4 -3 -17 3 -29 9
-19 9 -20 -4 -3 -14 16 -14 16 -14 -8 -1 -13 3 -22 8 -19 5 3 9 0 9 -5 0 -6
-4 -11 -10 -11 -5 0 -9 -11 -8 -24 1 -14 6 -22 10 -20 4 3 8 0 8 -5 0 -6 -5
-11 -11 -11 -8 0 -9 -4 0 -13 6 -8 8 -17 5 -20 -3 -3 -8 -22 -10 -42 -2 -25 0
-34 9 -29 7 4 9 4 5 -1 -4 -4 -3 -17 3 -29 9 -19 9 -20 -4 -3 -14 16 -14 16
-14 -8 0 -13 3 -22 8 -19 5 3 9 0 9 -5 0 -6 -4 -11 -10 -11 -5 0 -9 -11 -8
-24 1 -14 6 -22 10 -20 4 3 8 0 8 -5 0 -6 -5 -11 -11 -11 -8 0 -9 -4 0 -13 6
-8 8 -17 5 -20 -3 -3 -8 -22 -10 -42 -2 -25 0 -34 9 -29 7 4 9 4 5 -1 -4 -4
-3 -17 3 -29 9 -19 9 -20 -4 -3 -14 16 -14 16 -14 -8 0 -13 3 -22 8 -19 5 3 9
0 9 -5 0 -6 -4 -11 -10 -11 -5 0 -9 -11 -8 -24 1 -14 6 -22 10 -20 4 3 8 0 8
-5 0 -6 -5 -11 -11 -11 -8 0 -9 -4 0 -13 6 -8 8 -17 5 -20 -3 -3 -8 -22 -10
-42 -2 -25 0 -34 9 -29 7 4 9 4 5 -1 -4 -4 -3 -17 3 -29 9 -19 9 -20 -4 -3
-14 16 -15 16 -15 -8 0 -13 4 -22 9 -19 5 3 9 0 9 -5 0 -6 -4 -11 -10 -11 -5
0 -9 -11 -8 -24 1 -14 6 -22 10 -20 4 3 8 0 8 -5 0 -6 -5 -11 -11 -11 -8 0 -9
-4 0 -13 6 -8 8 -17 5 -20 -3 -3 -8 -22 -10 -42 -2 -25 0 -34 9 -29 7 4 9 4 5
-1 -4 -4 -3 -17 3 -29 9 -19 9 -20 -4 -3 -14 16 -15 16 -15 -8 0 -13 4 -22 9
-19 5 3 9 0 9 -5 0 -6 -4 -11 -10 -11 -5 0 -9 -11 -8 -24 1 -14 6 -22 10 -20
4 3 8 0 8 -5 0 -6 -5 -11 -11 -11 -8 0 -9 -4 0 -13 6 -8 8 -17 5 -20 -3 -3 -8
-22 -10 -42 -2 -25 0 -34 9 -29 7 4 9 4 5 -1 -4 -4 -3 -17 3 -29 9 -19 9 -20
-4 -3 -14 16 -15 16 -15 -8 0 -13 4 -22 9 -19 5 3 9 0 9 -5 0 -6 -4 -11 -10
-11 -5 0 -9 -11 -8 -24 1 -14 6 -22 10 -20 4 3 8 0 8 -5 0 -6 -5 -11 -11 -11
-8 0 -9 -4 0 -13 6 -8 8 -17 5 -20 -3 -3 -8 -22 -10 -42 -2 -25 0 -34 9 -29 7
4 9 4 5 -1 -4 -4 -3 -17 3 -29 9 -19 9 -20 -4 -3 -14 16 -15 16 -15 -8 0 -13
4 -22 9 -19 5 3 9 0 9 -5 0 -6 -4 -11 -10 -11 -5 0 -9 -11 -8 -24 1 -14 6 -22
10 -20 4 3 8 0 8 -5 0 -6 -5 -11 -11 -11 -8 0 -9 -4 0 -13 6 -8 8 -17 5 -20
-3 -3 -8 -22 -10 -42 -2 -25 0 -34 9 -29 7 4 9 4 5 -1 -4 -4 -3 -17 3 -29 9
-19 9 -20 -4 -3 -14 16 -15 16 -15 -8 0 -13 4 -22 9 -19 5 3 9 0 9 -5 0 -6 -4
-11 -10 -11 -5 0 -9 -11 -8 -24 1 -14 6 -22 10 -20 4 3 8 0 8 -5 0 -6 -5 -11
-11 -11 -8 0 -9 -4 0 -13 6 -8 8 -17 5 -20 -3 -3 -8 -22 -10 -42 -2 -25 0 -34
9 -29 7 4 9 4 5 -1 -4 -4 -3 -17 3 -29 9 -19 9 -20 -4 -3 -14 16 -15 16 -15
-8 0 -13 4 -22 9 -19 5 3 9 0 9 -5 0 -6 -4 -11 -10 -11 -5 0 -9 -11 -8 -24 1
-14 6 -22 10 -20 4 3 8 0 8 -5 0 -6 -5 -11 -11 -11 -8 0 -9 -4 0 -13 6 -8 8
-17 5 -20 -3 -3 -8 -22 -10 -42 -2 -25 0 -34 9 -29 7 4 9 4 5 -1 -4 -4 -3 -17
3 -29 9 -19 9 -20 -4 -3 -14 16 -14 16 -14 -8 0 -13 3 -22 8 -19 5 3 9 0 9 -5
0 -6 -4 -11 -10 -11 -5 0 -9 -11 -8 -24 1 -14 6 -22 10 -20 4 3 8 0 8 -5 0 -6
-5 -11 -11 -11 -8 0 -9 -4 0 -13 6 -8 8 -17 5 -20 -3 -3 -8 -22 -10 -42 -2
-25 0 -34 9 -29 7 4 9 4 5 -1 -4 -4 -3 -17 3 -29 9 -19 9 -20 -4 -3 -14 16
-15 16 -15 -8 0 -13 4 -22 9 -19 5 3 9 0 9 -5 0 -6 -4 -11 -10 -11 -5 0 -9
-11 -8 -24 1 -14 6 -22 10 -20 4 3 8 0 8 -5 0 -6 -5 -11 -11 -11 -8 0 -9 -4 0
-13 6 -8 8 -16 6 -19 -3 -3 -8 -15 -10 -28 -3 -16 0 -20 10 -16 9 3 12 0 8 -9
-3 -8 -9 -13 -14 -10 -4 3 -6 -4 -4 -16 3 -13 10 -26 17 -31 10 -6 9 -8 -2 -8
-9 0 -11 -3 -5 -8 6 -4 10 -14 10 -22 0 -8 6 -14 14 -12 12 3 12 0 1 -12 -8
-11 -9 -16 -1 -16 6 0 11 -9 11 -21 0 -11 4 -17 10 -14 6 3 7 -1 4 -9 -3 -9
-1 -16 6 -16 6 0 8 -4 5 -10 -3 -5 -1 -10 4 -10 6 0 11 -7 11 -15 0 -8 4 -15
9 -15 6 0 8 -9 6 -19 -3 -15 1 -18 13 -14 9 3 14 3 10 -2 -11 -12 41 -57 55
-48 7 4 5 -2 -3 -12 -14 -17 -13 -18 7 -13 17 5 21 2 18 -13 -3 -12 1 -16 11
-12 8 3 14 -1 14 -11 0 -9 6 -16 14 -16 7 0 19 -6 25 -14 14 -17 54 -29 44
-14 -4 7 -1 8 6 4 7 -5 10 -15 6 -23 -4 -13 -3 -14 10 -3 10 8 15 9 15 1 0 -6
5 -11 11 -11 5 0 7 6 4 12 -4 7 3 2 15 -12 12 -14 19 -19 15 -12 -3 6 -1 12 4
12 6 0 11 -4 11 -8 0 -5 14 -8 30 -7 17 1 30 -2 30 -7 0 -5 9 -4 20 2 17 9 20
8 20 -7 0 -15 2 -16 10 -3 5 8 10 11 10 6 0 -5 8 -2 17 5 14 12 16 12 11 -2
-4 -9 -1 -16 8 -16 7 0 11 4 8 8 -2 4 0 10 6 14 5 3 10 1 10 -6 0 -8 5 -7 17
2 14 12 16 12 11 -2 -4 -9 -1 -16 8 -16 7 0 10 5 7 10 -4 6 0 8 9 4 9 -3 21 0
28 6 10 9 12 9 7 -4 -3 -9 0 -16 9 -16 7 0 11 4 8 8 -2 4 0 10 6 14 5 3 10 1
10 -6 0 -8 5 -7 17 2 14 12 16 12 11 -2 -4 -9 -1 -16 8 -16 7 0 10 5 7 10 -4
6 0 8 9 4 9 -3 21 0 28 6 10 9 12 9 7 -4 -3 -9 0 -16 9 -16 7 0 11 4 8 8 -2 4
0 10 6 14 5 3 10 1 10 -6 0 -8 5 -7 17 2 14 12 16 12 11 -2 -4 -9 -1 -16 8
-16 7 0 10 5 7 10 -4 6 0 8 9 4 9 -3 21 0 28 6 10 9 12 9 7 -4 -3 -9 0 -16 9
-16 7 0 11 4 8 8 -2 4 0 10 6 14 5 3 10 1 10 -6 0 -8 5 -7 17 2 14 12 16 12
11 -2 -4 -9 -1 -16 8 -16 7 0 10 5 7 10 -4 6 0 8 9 4 9 -3 21 0 28 6 10 9 12
9 7 -4 -3 -9 0 -16 9 -16 7 0 11 4 8 8 -2 4 0 10 6 14 5 3 10 1 10 -6 0 -8 5
-7 17 2 14 12 16 12 11 -2 -4 -9 -1 -16 8 -16 7 0 10 5 7 10 -4 6 0 8 9 4 9
-3 21 0 28 6 10 9 12 9 7 -4 -3 -9 0 -16 9 -16 7 0 11 4 8 8 -2 4 0 10 6 14 5
3 10 1 10 -6 0 -8 5 -7 17 2 14 12 16 12 11 -2 -4 -9 -1 -16 8 -16 7 0 10 5 7
10 -4 6 0 8 9 4 9 -3 21 0 28 6 10 9 12 9 7 -4 -3 -9 0 -16 9 -16 7 0 11 4 8
8 -2 4 0 10 6 14 5 3 10 1 10 -6 0 -8 5 -7 17 2 14 12 16 12 11 -2 -4 -9 -1
-16 8 -16 7 0 10 5 7 10 -4 6 0 8 9 4 9 -3 21 0 28 6 10 9 12 9 7 -4 -3 -9 0
-16 9 -16 7 0 11 4 8 8 -2 4 0 10 6 14 5 3 10 1 10 -6 0 -8 5 -7 17 2 14 12
16 12 11 -2 -4 -9 -1 -16 8 -16 7 0 10 5 7 10 -4 6 0 8 9 4 9 -3 21 0 28 6 10
9 12 9 7 -4 -3 -9 0 -16 9 -16 7 0 11 4 8 8 -2 4 0 10 6 14 5 3 10 1 10 -6 0
-8 5 -7 17 2 14 12 16 12 11 -2 -4 -9 -1 -16 8 -16 7 0 10 5 7 10 -4 6 0 8 9
4 9 -3 21 0 28 6 10 9 12 9 7 -4 -3 -9 0 -16 9 -16 7 0 11 4 8 8 -2 4 0 10 6
14 5 3 10 1 10 -6 0 -8 5 -7 17 2 14 12 16 12 11 -2 -4 -9 -1 -16 8 -16 7 0
10 5 7 10 -4 6 0 8 9 4 9 -3 21 0 28 6 10 9 12 9 7 -4 -3 -9 0 -16 9 -16 7 0
11 4 8 8 -2 4 0 10 6 14 5 3 10 1 10 -6 0 -8 5 -7 17 2 14 12 16 12 11 -2 -4
-9 -1 -16 8 -16 7 0 10 5 7 10 -4 6 0 8 9 4 9 -3 21 0 28 6 10 9 12 9 7 -4 -3
-9 0 -16 9 -16 7 0 11 4 8 8 -2 4 0 10 6 14 5 3 10 1 10 -6 0 -8 5 -7 17 2 14
12 16 12 11 -2 -4 -9 -1 -16 8 -16 7 0 10 5 7 10 -4 6 0 8 9 4 9 -3 21 0 28 6
10 9 12 9 7 -4 -3 -9 0 -16 9 -16 7 0 11 4 8 8 -2 4 0 10 6 14 5 3 10 1 10 -6
0 -8 5 -7 17 2 14 12 16 12 11 -2 -4 -9 -1 -16 8 -16 7 0 10 5 7 10 -4 6 0 8
9 4 9 -3 21 0 28 6 10 9 12 9 7 -4 -3 -9 0 -16 9 -16 7 0 11 4 8 8 -2 4 0 10
6 14 5 3 10 1 10 -6 0 -8 5 -7 17 2 14 12 16 12 11 -2 -4 -9 -1 -16 8 -16 7 0
10 5 7 10 -4 6 0 8 9 4 9 -3 21 0 28 6 10 9 12 9 7 -4 -3 -9 0 -16 9 -16 7 0
11 4 8 8 -2 4 0 10 6 14 5 3 10 1 10 -6 0 -8 5 -7 17 2 14 12 16 12 11 -2 -4
-9 -1 -16 8 -16 7 0 10 5 7 10 -4 6 0 8 9 4 9 -3 21 0 28 6 10 9 12 9 7 -4 -3
-9 0 -16 9 -16 7 0 11 4 8 8 -2 4 0 10 6 14 5 3 10 1 10 -6 0 -8 5 -7 17 2 14
12 16 12 11 -2 -4 -9 -1 -16 8 -16 7 0 10 5 7 10 -4 6 0 8 9 4 9 -3 21 0 28 6
10 9 12 9 7 -4 -3 -9 0 -16 9 -16 7 0 11 4 8 8 -2 4 0 10 6 14 5 3 10 1 10 -6
0 -8 5 -7 17 2 14 12 16 12 11 -2 -4 -9 -1 -16 8 -16 7 0 10 5 7 10 -4 6 0 8
9 4 9 -3 21 0 28 6 10 9 12 9 7 -4 -3 -9 0 -16 9 -16 7 0 11 4 8 8 -2 4 0 10
6 14 5 3 10 1 10 -6 0 -8 5 -7 17 2 14 12 16 12 11 -2 -4 -9 -1 -16 8 -16 7 0
10 5 7 10 -4 6 0 8 9 4 9 -3 21 0 28 6 10 9 12 9 7 -4 -3 -9 0 -16 9 -16 7 0
11 4 8 8 -2 4 0 10 6 14 5 3 10 1 10 -6 0 -8 5 -7 17 2 14 12 16 12 11 -2 -4
-9 -1 -16 8 -16 7 0 10 5 7 10 -4 6 0 8 9 4 9 -3 21 0 28 6 10 9 12 9 7 -4 -3
-9 0 -16 9 -16 7 0 11 4 8 8 -2 4 0 10 6 14 5 3 10 1 10 -6 0 -8 5 -7 17 2 14
12 16 12 11 -2 -4 -9 -1 -16 8 -16 7 0 10 5 7 10 -4 6 0 8 9 4 9 -3 21 0 28 6
10 9 12 9 7 -4 -3 -9 0 -16 9 -16 7 0 11 4 8 8 -2 4 0 10 6 14 5 3 10 1 10 -6
0 -8 5 -7 17 2 14 12 16 12 11 -2 -4 -9 -1 -16 8 -16 7 0 10 5 7 10 -4 6 0 8
9 4 9 -3 21 0 28 6 10 9 12 9 7 -4 -3 -9 0 -16 9 -16 7 0 11 4 8 8 -2 4 0 10
6 14 5 3 10 1 10 -6 0 -8 5 -7 17 2 14 12 16 12 11 -2 -4 -9 -1 -16 8 -16 7 0
10 5 7 10 -4 6 0 8 9 4 9 -3 21 0 28 6 10 9 12 9 7 -4 -3 -9 0 -16 9 -16 7 0
11 4 8 8 -2 4 0 10 6 14 5 3 10 1 10 -6 0 -8 5 -7 17 2 14 12 16 12 11 -2 -4
-9 -1 -16 8 -16 7 0 10 5 7 10 -4 6 0 8 9 4 9 -3 21 0 28 6 10 9 12 9 7 -4 -3
-9 0 -16 9 -16 7 0 11 4 8 8 -2 4 0 10 6 14 5 3 10 1 10 -6 0 -8 5 -7 17 2 14
12 16 12 11 -2 -4 -9 -1 -16 8 -16 7 0 10 5 7 10 -4 6 0 8 9 4 9 -3 21 0 28 6
10 9 12 9 7 -4 -3 -9 0 -16 9 -16 7 0 11 4 8 8 -2 4 0 10 6 14 5 3 10 1 10 -6
0 -8 5 -7 17 2 14 12 16 12 11 -2 -4 -9 -1 -16 8 -16 7 0 10 5 7 10 -4 6 0 8
9 4 9 -3 21 0 28 6 10 9 12 9 7 -4 -3 -9 0 -16 9 -16 7 0 11 4 8 8 -2 4 0 10
6 14 5 3 10 1 10 -6 0 -8 5 -7 17 2 14 12 16 12 11 -2 -4 -9 -1 -16 8 -16 7 0
10 5 7 10 -4 6 0 8 9 4 9 -3 21 0 28 6 10 9 12 9 7 -4 -3 -9 0 -16 9 -16 7 0
11 4 8 8 -2 4 0 10 6 14 5 3 10 1 10 -6 0 -8 5 -7 17 2 14 12 16 12 11 -2 -4
-9 -1 -16 8 -16 7 0 10 5 7 10 -4 6 0 8 9 4 9 -3 21 0 28 6 10 9 12 9 7 -4 -3
-9 0 -16 9 -16 7 0 11 4 8 8 -2 4 0 10 6 14 5 3 10 1 10 -6 0 -8 5 -7 17 2 14
12 16 12 11 -2 -4 -9 -1 -16 8 -16 7 0 10 5 7 10 -4 6 0 8 9 4 9 -3 21 0 28 6
10 9 12 9 7 -4 -3 -9 0 -16 9 -16 7 0 11 4 8 8 -2 4 0 10 6 14 5 3 10 1 10 -6
0 -8 5 -7 17 2 14 12 16 12 11 -2 -4 -9 -1 -16 8 -16 7 0 10 5 7 10 -4 6 0 8
9 4 9 -3 21 0 28 6 10 9 12 9 7 -4 -3 -9 0 -16 9 -16 7 0 11 4 8 8 -2 4 0 10
6 14 5 3 10 1 10 -6 0 -8 5 -7 17 2 14 12 16 12 11 -2 -4 -9 -1 -16 8 -16 7 0
10 5 7 10 -4 6 0 8 9 4 9 -3 21 0 28 6 10 9 12 9 7 -4 -3 -9 0 -16 9 -16 7 0
11 4 8 8 -2 4 0 10 6 14 5 3 10 1 10 -6 0 -8 5 -7 17 2 14 12 16 12 11 -2 -4
-9 -1 -16 8 -16 7 0 10 5 7 10 -4 6 0 8 9 4 9 -3 21 0 28 6 10 9 12 9 7 -4 -3
-9 0 -16 9 -16 7 0 11 4 8 8 -2 4 0 10 6 14 5 3 10 1 10 -6 0 -8 5 -7 17 2 14
12 16 12 11 -2 -4 -9 -1 -16 8 -16 7 0 10 5 7 10 -4 6 0 8 9 4 9 -3 21 0 28 6
10 9 12 9 7 -4 -3 -9 0 -16 9 -16 7 0 11 4 8 8 -2 4 0 10 6 14 5 3 10 1 10 -6
0 -8 5 -7 17 2 14 12 16 12 11 -2 -4 -9 -1 -16 8 -16 7 0 10 5 7 10 -4 6 0 8
9 4 9 -3 21 0 28 6 10 9 12 9 7 -4 -3 -9 0 -16 9 -16 7 0 11 4 8 8 -2 4 0 10
6 14 5 3 10 1 10 -6 0 -8 5 -7 17 2 14 12 16 12 11 -2 -4 -9 -1 -16 8 -16 7 0
10 5 7 10 -4 6 0 8 9 4 9 -3 19 -3 22 0 4 4 25 8 49 10 23 2 49 7 57 10 8 3
20 7 25 8 6 0 9 6 8 11 -1 6 4 11 12 11 8 0 12 -5 9 -11 -3 -6 0 -4 8 4 7 8
20 15 28 15 8 0 14 5 13 12 -2 7 3 10 11 7 8 -3 25 5 39 18 14 13 33 30 44 38
10 8 12 11 4 5 -14 -9 -14 -8 -2 8 8 10 21 15 29 12 12 -4 12 -3 3 8 -9 11 -7
17 6 28 17 13 17 13 3 -6 -14 -18 -13 -19 1 -8 9 7 19 10 23 6 4 -4 4 0 1 9
-4 9 -1 19 4 23 6 3 9 11 6 16 -4 5 -1 9 5 9 6 0 8 5 5 10 -4 6 -1 9 7 8 8 -2
12 4 10 16 -2 12 1 16 9 10 9 -5 11 -1 7 14 -4 14 -2 19 6 16 7 -3 13 2 13 11
0 8 -5 15 -11 16 -6 0 0 5 14 11 16 6 20 12 12 15 -10 4 -9 8 5 18 15 11 16
15 3 31 -8 10 -10 15 -3 11 9 -6 11 4 10 33 -2 29 1 39 10 36 7 -3 10 1 6 9
-3 8 -8 13 -12 10 -4 -2 -6 10 -5 28 1 18 3 32 4 32 1 0 3 23 5 52 1 29 -1 50
-5 48 -3 -2 -5 10 -4 28 1 18 3 32 4 32 1 0 3 23 5 52 1 29 -1 50 -5 48 -3 -2
-5 10 -4 28 1 18 3 32 4 32 1 0 3 23 5 52 1 29 -1 50 -5 48 -3 -2 -5 10 -4 28
1 18 3 32 4 32 1 0 3 23 5 52 1 29 -1 50 -5 48 -3 -2 -5 10 -4 28 1 18 3 32 4
32 1 0 3 23 5 52 1 29 -1 50 -5 48 -3 -2 -5 10 -4 28 1 18 3 32 4 32 1 0 3 23
5 52 1 29 -1 50 -5 48 -3 -2 -5 10 -4 28 1 18 3 32 4 32 1 0 3 23 5 52 1 29
-1 50 -5 48 -3 -2 -5 10 -4 28 1 18 3 32 4 32 1 0 3 23 5 52 1 29 -1 50 -5 48
-3 -2 -5 10 -4 28 1 18 3 32 4 32 1 0 3 23 5 52 1 29 -1 50 -5 48 -3 -2 -5 10
-4 28 1 18 3 32 4 32 1 0 3 23 5 52 1 29 -1 50 -5 48 -3 -2 -5 10 -4 28 1 18
3 32 4 32 1 0 3 23 5 52 1 29 -1 50 -5 48 -3 -2 -5 10 -4 28 1 18 3 32 4 32 1
0 3 23 5 52 1 29 -1 50 -5 48 -3 -2 -5 10 -4 28 1 18 3 32 4 32 1 0 3 23 5 52
1 29 -1 50 -5 48 -3 -2 -5 10 -4 28 1 18 3 32 4 32 1 0 3 23 5 52 1 29 -1 50
-5 48 -3 -2 -5 10 -4 28 1 18 3 32 4 32 1 0 3 23 5 52 1 29 -1 50 -5 48 -3 -2
-5 10 -4 28 1 18 3 32 4 32 1 0 3 23 5 52 1 29 -1 50 -5 48 -3 -2 -5 10 -4 28
1 18 3 32 4 32 1 0 3 23 5 52 1 29 -1 50 -5 48 -3 -2 -5 10 -4 28 1 18 3 32 4
32 1 0 3 23 5 52 1 29 -1 50 -5 48 -3 -2 -5 10 -4 28 1 18 3 32 4 32 1 0 3 23
5 52 1 29 -1 50 -5 48 -3 -2 -5 10 -4 28 1 18 3 32 4 32 1 0 3 23 5 52 1 29
-1 50 -5 48 -3 -2 -5 10 -4 28 1 18 3 32 4 32 1 0 3 23 5 52 1 29 -1 50 -5 48
-3 -2 -5 10 -4 28 1 18 3 32 4 32 1 0 3 23 5 52 1 29 -1 50 -5 48 -3 -2 -5 10
-4 28 1 18 3 32 4 32 1 0 3 23 5 52 1 29 -1 50 -5 48 -3 -2 -5 10 -4 28 1 18
3 32 4 32 1 0 3 23 5 52 1 29 -1 50 -5 48 -3 -2 -5 10 -4 28 1 18 3 32 4 32 1
0 3 23 5 52 1 29 -1 50 -5 48 -8 -5 -4 71 5 85 3 6 0 10 -7 10 -9 0 -9 3 2 10
11 7 11 10 2 10 -7 0 -11 4 -8 9 4 5 0 12 -6 14 -10 4 -10 6 0 6 9 1 10 6 2
20 -7 14 -6 21 3 24 7 3 4 6 -6 6 -10 1 -16 5 -12 10 3 5 -2 16 -10 24 -11 12
-12 17 -2 20 9 4 9 6 0 6 -7 1 -13 10 -13 20 0 11 -5 23 -12 27 -7 5 -8 3 -3
-6 5 -9 4 -11 -4 -6 -7 4 -10 13 -8 19 6 16 -32 69 -44 62 -5 -4 -6 1 -3 9 4
11 0 16 -10 16 -9 0 -16 7 -16 16 0 8 -4 12 -10 9 -6 -3 -10 1 -10 9 0 8 -9
18 -21 21 -12 4 -18 13 -15 20 3 9 0 12 -10 8 -7 -3 -14 -10 -14 -16 0 -7 -10
3 -22 20 -20 29 -42 39 -71 34 -5 -1 -5 4 -1 10 5 9 2 10 -10 6 -13 -5 -17 -3
-13 7 4 10 0 12 -15 8 -13 -3 -24 1 -30 12 -5 9 -14 14 -19 10 -6 -3 -21 -7
-35 -9 -19 -2 -24 1 -19 13 4 12 0 11 -21 -3 -21 -14 -26 -14 -22 -3 7 18 -17
17 -52 -2 -22 -11 -23 -11 -13 1 10 12 8 15 -7 15 -10 0 -17 -3 -14 -7 2 -4
-3 -10 -12 -13 -21 -8 -24 -8 -24 5 0 5 5 7 12 3 6 -4 8 -3 5 3 -8 13 -36 10
-67 -7 -22 -11 -23 -11 -13 1 10 12 8 15 -7 15 -10 0 -17 -3 -14 -7 2 -4 -3
-10 -12 -13 -21 -8 -24 -8 -24 5 0 5 5 7 12 3 6 -4 8 -3 5 3 -8 13 -36 10 -67
-7 -22 -11 -23 -11 -13 1 10 12 8 15 -7 15 -10 0 -17 -3 -14 -7 2 -4 -3 -10
-12 -13 -21 -8 -24 -8 -24 5 0 5 5 7 12 3 6 -4 8 -3 5 3 -8 13 -36 10 -67 -7
-22 -11 -23 -11 -13 1 10 12 8 15 -7 15 -10 0 -17 -3 -14 -7 2 -4 -3 -10 -12
-13 -21 -8 -24 -8 -24 5 0 5 5 7 12 3 6 -4 8 -3 5 3 -8 13 -36 10 -67 -7 -22
-11 -23 -11 -13 1 10 12 8 15 -7 15 -10 0 -17 -3 -14 -7 2 -4 -3 -10 -12 -13
-21 -8 -24 -8 -24 5 0 5 5 7 12 3 6 -4 8 -3 5 3 -8 13 -36 10 -67 -7 -22 -11
-23 -11 -13 1 10 12 8 15 -7 15 -10 0 -17 -3 -14 -7 2 -4 -3 -10 -12 -13 -21
-8 -24 -8 -24 5 0 5 5 7 12 3 6 -4 8 -3 5 3 -8 13 -36 10 -67 -7 -22 -11 -23
-11 -13 1 10 12 8 15 -7 15 -10 0 -17 -3 -14 -7 2 -4 -3 -10 -12 -13 -21 -8
-24 -8 -24 5 0 5 5 7 12 3 6 -4 8 -3 5 3 -8 13 -36 10 -67 -7 -22 -11 -23 -11
-13 1 10 12 8 15 -7 15 -10 0 -17 -3 -14 -7 2 -4 -3 -10 -12 -13 -21 -8 -24
-8 -24 5 0 5 5 7 12 3 6 -4 8 -3 5 3 -8 13 -36 10 -67 -7 -22 -11 -23 -11 -13
1 10 12 8 15 -7 15 -10 0 -17 -3 -14 -7 2 -4 -3 -10 -12 -13 -21 -8 -24 -8
-24 5 0 5 5 7 12 3 6 -4 8 -3 5 3 -8 13 -36 10 -67 -7 -22 -11 -23 -11 -13 1
10 12 8 15 -7 15 -10 0 -17 -3 -14 -7 2 -4 -3 -10 -12 -13 -21 -8 -24 -8 -24
5 0 5 5 7 12 3 6 -4 8 -3 5 3 -8 13 -36 10 -67 -7 -22 -11 -23 -11 -13 1 10
12 8 15 -7 15 -10 0 -17 -3 -14 -7 2 -4 -3 -10 -12 -13 -21 -8 -24 -8 -24 5 0
5 5 7 12 3 6 -4 8 -3 5 3 -8 13 -36 10 -67 -7 -22 -11 -23 -11 -13 1 10 12 8
15 -7 15 -10 0 -17 -3 -14 -7 2 -4 -3 -10 -12 -13 -21 -8 -24 -8 -24 5 0 5 5
7 12 3 6 -4 8 -3 5 3 -8 13 -36 10 -67 -7 -22 -11 -23 -11 -13 1 10 12 8 15
-7 15 -10 0 -17 -3 -14 -7 2 -4 -3 -10 -12 -13 -21 -8 -24 -8 -24 5 0 5 5 7
12 3 6 -4 8 -3 5 3 -8 13 -36 10 -67 -7 -22 -11 -23 -11 -13 1 10 12 8 15 -7
15 -10 0 -17 -3 -14 -7 2 -4 -3 -10 -12 -13 -21 -8 -24 -8 -24 5 0 5 5 7 12 3
6 -4 8 -3 5 3 -8 13 -36 10 -67 -7 -22 -11 -23 -11 -13 1 10 12 8 15 -7 15
-10 0 -17 -3 -14 -7 2 -4 -3 -10 -12 -13 -21 -8 -24 -8 -24 5 0 5 5 7 12 3 6
-4 8 -3 5 3 -8 13 -36 10 -67 -7 -22 -11 -23 -11 -13 1 10 12 8 15 -7 15 -10
0 -17 -3 -14 -7 2 -4 -3 -10 -12 -13 -21 -8 -24 -8 -24 5 0 5 5 7 12 3 6 -4 8
-3 5 3 -8 13 -36 10 -67 -7 -22 -11 -23 -11 -13 1 10 12 8 15 -7 15 -10 0 -17
-3 -14 -7 2 -4 -3 -10 -12 -13 -21 -8 -24 -8 -24 5 0 5 5 7 12 3 6 -4 8 -3 5
3 -8 13 -36 10 -67 -7 -22 -11 -23 -11 -13 1 10 12 8 15 -7 15 -10 0 -17 -3
-14 -7 2 -4 -3 -10 -12 -13 -21 -8 -24 -8 -24 5 0 5 5 7 12 3 6 -4 8 -3 5 3
-8 13 -36 10 -67 -7 -22 -11 -23 -11 -13 1 10 12 8 15 -7 15 -10 0 -17 -3 -14
-7 2 -4 -3 -10 -12 -13 -21 -8 -24 -8 -24 5 0 5 5 7 12 3 6 -4 8 -3 5 3 -8 13
-36 10 -67 -7 -22 -11 -23 -11 -13 1 10 12 8 15 -7 15 -10 0 -17 -3 -14 -7 2
-4 -3 -10 -12 -13 -21 -8 -24 -8 -24 5 0 5 5 7 12 3 6 -4 8 -3 5 3 -8 13 -36
10 -67 -7 -22 -11 -23 -11 -13 1 10 12 8 15 -7 15 -10 0 -17 -3 -14 -7 2 -4
-3 -10 -12 -13 -21 -8 -24 -8 -24 5 0 5 5 7 12 3 6 -4 8 -3 5 3 -8 13 -36 10
-67 -7 -22 -11 -23 -11 -13 1 10 12 8 15 -7 15 -10 0 -17 -3 -14 -7 2 -4 -3
-10 -12 -13 -21 -8 -24 -8 -24 5 0 5 5 7 12 3 6 -4 8 -3 5 3 -8 13 -36 10 -67
-7 -22 -11 -23 -11 -13 1 10 12 8 15 -7 15 -10 0 -17 -3 -14 -7 2 -4 -3 -10
-12 -13 -21 -8 -24 -8 -24 5 0 5 5 7 12 3 6 -4 8 -3 5 3 -8 13 -36 10 -67 -7
-22 -11 -23 -11 -13 1 10 12 8 15 -7 15 -10 0 -17 -3 -14 -7 2 -4 -3 -10 -12
-13 -21 -8 -24 -8 -24 5 0 5 5 7 12 3 6 -4 8 -3 5 3 -8 13 -36 10 -67 -7 -22
-11 -23 -11 -13 1 10 12 8 15 -7 15 -10 0 -17 -3 -14 -7 2 -4 -3 -10 -12 -13
-21 -8 -24 -8 -24 5 0 5 5 7 12 3 6 -4 8 -3 5 3 -8 13 -36 10 -67 -7 -22 -11
-23 -11 -13 1 10 12 8 15 -7 15 -10 0 -17 -3 -14 -7 2 -4 -3 -10 -12 -13 -21
-8 -24 -8 -24 5 0 5 5 7 12 3 6 -4 8 -3 5 3 -8 13 -36 10 -67 -7 -22 -11 -23
-11 -13 1 10 12 8 15 -7 15 -10 0 -17 -3 -14 -7 2 -4 -3 -10 -12 -13 -21 -8
-24 -8 -24 5 0 5 5 7 12 3 6 -4 8 -3 5 3 -8 13 -36 10 -67 -7 -22 -11 -23 -11
-13 1 10 12 8 15 -7 15 -10 0 -17 -3 -14 -7 2 -4 -3 -10 -12 -13 -21 -8 -24
-8 -24 5 0 5 5 7 12 3 6 -4 8 -3 5 3 -8 13 -36 10 -67 -7 -22 -11 -23 -11 -13
1 10 12 8 15 -7 15 -10 0 -17 -3 -14 -7 2 -4 -3 -10 -12 -13 -21 -8 -24 -8
-24 5 0 5 5 7 12 3 6 -4 8 -3 5 3 -8 13 -36 10 -67 -7 -22 -11 -23 -11 -13 1
10 12 8 15 -7 15 -10 0 -17 -3 -14 -7 2 -4 -3 -10 -12 -13 -21 -8 -24 -8 -24
5 0 5 5 7 12 3 6 -4 8 -3 5 3 -8 13 -36 10 -67 -7 -22 -11 -23 -11 -13 1 10
12 8 15 -7 15 -10 0 -17 -3 -14 -7 2 -4 -3 -10 -12 -13 -21 -8 -24 -8 -24 5 0
5 5 7 12 3 6 -4 8 -3 5 3 -8 13 -36 10 -67 -7 -22 -11 -23 -11 -13 1 10 12 8
15 -7 15 -10 0 -17 -3 -14 -7 2 -4 -3 -10 -12 -13 -21 -8 -24 -8 -24 5 0 5 5
7 12 3 6 -4 8 -3 5 3 -8 13 -36 10 -67 -7 -22 -11 -23 -11 -13 1 10 12 8 15
-7 15 -10 0 -17 -3 -14 -7 2 -4 -3 -10 -12 -13 -21 -8 -24 -8 -24 5 0 5 5 7
12 3 6 -4 8 -3 5 3 -8 12 -36 10 -64 -5 -27 -15 -33 -15 -33 -1 0 5 4 8 9 4 5
-3 12 -1 15 3 8 13 -35 8 -61 -6 -13 -7 -23 -8 -23 -3 0 5 6 11 13 14 6 2 0 4
-15 3 -14 0 -24 -4 -21 -8z m-442 -457 c3 -5 2 -12 -3 -15 -5 -3 -9 1 -9 9 0
17 3 19 12 6z m5 -51 c0 -5 -5 -10 -11 -10 -5 0 -7 5 -4 10 3 6 8 10 11 10 2
0 4 -4 4 -10z m2362 -159 c12 7 18 6 18 -1 0 -6 4 -8 10 -5 19 11 50 14 50 4
0 -6 6 -7 12 -2 20 11 148 11 148 -2 0 -6 3 -7 8 0 10 14 32 17 32 4 0 -5 5
-7 12 -3 15 9 68 11 68 2 0 -8 43 -4 58 6 6 3 14 1 18 -5 5 -8 2 -10 -7 -5 -8
4 -5 0 5 -8 14 -11 23 -13 32 -5 7 5 15 6 18 1 3 -5 15 -8 28 -7 13 2 34 -4
47 -12 18 -12 22 -12 15 -2 -6 11 -5 12 7 2 9 -7 34 -14 56 -16 23 -2 48 -8
56 -15 7 -6 17 -9 20 -5 4 3 7 -2 7 -13 0 -14 2 -16 9 -6 7 11 11 10 24 -2 10
-10 18 -12 22 -6 3 5 12 10 18 10 7 0 6 -4 -3 -10 -13 -9 -13 -10 0 -11 8 -1
18 -1 23 0 4 0 7 -4 7 -10 0 -5 4 -8 9 -4 5 3 17 -2 26 -11 8 -9 24 -14 35
-11 11 3 23 0 27 -5 3 -7 1 -8 -5 -4 -7 4 -12 5 -12 2 0 -4 18 -13 40 -22 22
-9 40 -21 40 -28 0 -6 5 -4 10 4 7 11 10 11 10 2 0 -7 5 -10 10 -7 6 3 10 -1
10 -9 0 -9 5 -17 10 -17 6 -1 15 -3 20 -4 6 -1 15 -3 20 -4 6 0 10 -8 10 -17
0 -14 3 -14 16 -4 12 11 15 11 12 -1 -2 -8 3 -13 11 -11 9 2 11 -3 7 -14 -5
-12 -2 -15 10 -10 11 4 18 -1 21 -14 5 -17 8 -18 21 -8 12 10 14 10 8 1 -4 -8
-2 -13 4 -13 6 0 8 -5 5 -11 -4 -6 0 -9 11 -7 11 2 19 -1 18 -7 0 -5 12 -22
28 -37 31 -30 38 -26 11 6 -13 16 -11 15 9 -3 15 -13 25 -28 22 -32 -3 -5 2
-9 10 -9 9 0 16 -6 16 -14 0 -8 9 -18 20 -21 11 -3 20 -11 20 -16 0 -6 5 -7
10 -4 6 4 9 1 8 -7 -2 -7 3 -12 10 -10 8 1 11 -2 8 -7 -4 -5 -2 -12 4 -16 6
-4 8 -10 5 -15 -3 -5 3 -7 13 -5 12 2 19 -2 18 -10 0 -8 3 -13 8 -12 9 2 30
-42 28 -55 -3 -13 16 -9 20 4 3 7 7 2 10 -10 4 -15 2 -20 -5 -16 -7 3 -1 -4
13 -15 14 -11 29 -21 34 -21 5 0 6 -3 3 -6 -4 -4 -12 -3 -20 2 -7 5 -5 1 6 -8
11 -11 15 -23 11 -30 -6 -9 -3 -9 9 1 15 12 17 12 11 -3 -3 -9 -1 -16 5 -16 6
0 11 -7 11 -16 0 -8 4 -12 10 -9 5 3 7 0 4 -8 -3 -8 2 -17 10 -20 9 -4 16 -18
16 -32 0 -16 6 -25 16 -25 8 0 12 -5 9 -10 -3 -6 8 -31 25 -57 18 -26 25 -41
16 -34 -14 12 -16 12 -10 -2 3 -8 12 -18 20 -21 9 -3 12 -10 9 -16 -3 -6 0
-17 9 -25 8 -8 13 -24 11 -35 -2 -11 0 -18 6 -15 5 4 9 -5 9 -19 0 -13 6 -31
14 -39 11 -11 12 -17 3 -26 -9 -9 -7 -10 8 -5 18 7 18 6 6 -9 -10 -13 -10 -17
-1 -17 7 0 10 -6 7 -14 -3 -7 0 -19 6 -26 9 -10 9 -11 0 -6 -9 5 -11 2 -7 -9
4 -9 13 -14 22 -10 11 4 12 2 5 -7 -6 -7 -8 -22 -6 -33 3 -11 5 -33 5 -49 0
-16 5 -35 12 -41 6 -6 11 -39 11 -73 0 -34 4 -62 9 -62 5 0 3 -6 -3 -14 -9
-10 -9 -16 -1 -21 8 -5 7 -11 -1 -22 -8 -9 -9 -17 -3 -21 13 -10 11 -45 -4
-50 -6 -2 -10 -7 -8 -10 2 -4 -21 -6 -52 -5 -158 7 -182 7 -182 0 0 -5 -5 -5
-10 -2 -6 4 -7 12 -4 18 5 8 3 8 -7 0 -18 -17 -82 -17 -74 0 4 6 -1 3 -9 -7
-12 -15 -16 -16 -16 -5 0 10 -2 11 -8 2 -4 -7 -13 -9 -20 -4 -7 4 -24 6 -38 3
-16 -3 -24 0 -24 9 0 12 -2 12 -9 0 -6 -9 -20 -12 -40 -9 -17 2 -31 1 -31 -4
0 -5 -5 -6 -10 -3 -6 4 -7 12 -4 18 5 8 3 8 -7 0 -7 -7 -23 -13 -36 -13 -13 0
-23 6 -24 13 0 10 -2 10 -6 0 -6 -16 -42 -17 -78 -3 -17 7 -24 7 -20 0 3 -6 2
-10 -3 -10 -7 0 -32 42 -32 55 0 2 8 1 18 -2 16 -7 16 -6 -1 11 -9 10 -15 22
-11 27 3 6 1 16 -6 24 -7 9 -8 15 0 20 5 3 10 11 10 16 0 6 -5 7 -12 3 -7 -5
-9 -2 -5 8 3 9 0 21 -6 27 -8 8 -8 11 1 11 6 0 9 7 6 15 -4 8 -11 12 -18 8 -6
-3 -6 -1 2 8 14 16 16 33 2 24 -5 -3 -10 -1 -10 5 0 6 -5 8 -12 4 -7 -4 -8 -3
-4 5 4 6 13 8 19 4 8 -5 8 -2 0 9 -7 8 -10 18 -6 21 3 4 1 7 -5 7 -7 0 -12 11
-12 24 0 13 -7 26 -15 30 -8 3 -12 12 -9 21 3 8 2 15 -2 15 -10 0 -40 60 -36
73 1 4 -3 7 -9 7 -5 0 -7 5 -4 10 3 6 -1 10 -10 10 -9 0 -13 5 -10 10 3 6 1
10 -5 10 -6 0 -8 5 -5 10 3 6 1 10 -5 10 -6 0 -8 5 -5 10 3 6 1 10 -5 10 -6 0
-18 6 -26 14 -11 11 -11 16 -1 19 6 3 2 6 -11 6 -13 1 -21 5 -18 10 3 4 -8 19
-24 31 -16 12 -27 27 -24 31 3 5 -4 9 -15 9 -13 0 -21 7 -21 16 0 10 -5 14
-16 10 -8 -3 -13 -2 -10 3 8 12 -28 42 -52 44 -12 1 -18 6 -15 14 3 8 0 13 -8
11 -8 -2 -13 3 -11 11 3 12 0 12 -12 1 -11 -8 -16 -9 -16 -1 0 6 -9 11 -21 11
-11 0 -18 4 -15 9 7 11 -22 23 -35 15 -5 -3 -9 0 -9 5 0 6 -9 11 -20 11 -11 0
-20 5 -20 11 0 5 -4 8 -9 5 -5 -4 -22 -1 -38 5 -15 6 -41 13 -58 16 -16 3 -33
10 -37 16 -6 9 -8 9 -8 0 0 -7 -7 -13 -15 -13 -8 0 -15 5 -15 11 0 6 -9 9 -20
6 -11 -3 -20 0 -21 6 0 8 -2 8 -6 -1 -2 -6 -9 -9 -15 -6 -17 11 -178 10 -178
-1 0 -5 -5 -3 -10 5 -6 9 -10 11 -10 3 0 -7 -6 -10 -14 -7 -8 3 -17 0 -21 -6
-5 -8 -11 -8 -21 1 -11 9 -15 8 -20 -5 -5 -12 -10 -14 -19 -6 -9 7 -15 8 -19
1 -4 -6 -13 -8 -20 -5 -8 3 -17 1 -21 -5 -3 -6 -15 -11 -25 -11 -10 0 -21 -6
-23 -12 -4 -10 -8 -10 -15 1 -8 11 -11 10 -19 -4 -6 -10 -22 -17 -37 -17 -15
0 -30 -7 -33 -14 -3 -8 -9 -11 -14 -8 -5 3 -9 1 -9 -4 0 -6 -8 -9 -17 -8 -11
0 -17 -5 -15 -13 2 -8 -3 -11 -13 -8 -8 4 -15 2 -15 -3 0 -6 -7 -10 -15 -10
-9 0 -18 -7 -21 -15 -4 -8 -10 -12 -15 -9 -5 3 -9 -2 -9 -11 0 -9 -4 -13 -10
-10 -5 3 -10 1 -10 -4 0 -6 -6 -10 -12 -8 -7 1 -12 -4 -10 -12 2 -8 -3 -11
-12 -8 -10 4 -14 0 -11 -13 2 -13 -1 -17 -10 -14 -8 3 -29 -15 -52 -45 -21
-27 -43 -48 -49 -46 -7 2 -10 -4 -6 -17 3 -14 1 -19 -6 -14 -6 3 -13 2 -17 -4
-3 -5 -1 -10 5 -10 6 0 8 -5 5 -10 -4 -6 -11 -7 -17 -4 -7 5 -9 2 -5 -8 4 -11
-1 -18 -15 -21 -12 -3 -17 -10 -13 -17 4 -6 -1 -18 -11 -26 -11 -9 -13 -12 -6
-9 11 6 11 3 0 -16 -7 -13 -19 -28 -26 -32 -11 -7 -11 -11 0 -25 11 -13 11
-14 0 -8 -9 6 -12 3 -10 -10 2 -12 -2 -18 -10 -16 -8 1 -11 -2 -7 -8 3 -5 1
-19 -5 -30 -8 -15 -8 -20 2 -21 10 0 10 -2 0 -6 -6 -2 -10 -9 -6 -14 3 -5 -1
-9 -8 -9 -8 -1 -5 -7 7 -17 20 -15 20 -15 -1 -11 -18 5 -20 1 -20 -38 1 -24
-2 -44 -6 -44 -3 0 -4 -9 -1 -20 3 -11 0 -26 -6 -34 -8 -10 -9 -16 -1 -21 15
-9 12 -25 -4 -25 -8 0 -16 -4 -18 -9 -2 -8 -75 -14 -128 -10 -8 1 -35 1 -60 0
-25 -1 -52 -1 -60 0 -8 1 -53 1 -100 0 -47 0 -92 0 -100 0 -8 1 -35 0 -60 0
-25 -1 -79 -1 -122 1 -43 2 -74 -1 -71 -6 4 -5 1 -6 -6 -2 -6 4 -8 12 -5 18 5
7 2 9 -8 6 -11 -5 -14 0 -12 20 1 15 -3 33 -9 41 -10 12 -9 13 2 6 11 -6 13
-4 8 8 -4 10 -2 17 5 17 7 0 6 5 -2 15 -9 11 -9 15 -1 15 7 0 9 5 6 10 -3 6 0
10 7 10 9 0 9 3 -2 10 -8 5 -10 10 -4 10 7 0 10 25 10 65 -1 36 2 65 7 65 4 0
7 5 7 11 0 5 -6 7 -12 4 -7 -4 -4 1 6 9 11 9 16 16 10 16 -5 0 -2 5 6 10 13 8
13 10 1 10 -11 0 -10 4 5 16 10 8 13 13 7 9 -8 -4 -13 0 -13 9 0 9 4 16 9 16
5 0 8 12 5 26 -3 16 -1 23 6 19 7 -4 9 3 6 19 -3 15 1 32 9 40 8 7 12 16 9 18
-2 3 2 18 10 33 8 16 12 33 9 38 -4 7 1 8 13 3 15 -6 16 -4 7 5 -9 9 -8 15 3
27 8 8 13 19 11 26 -2 6 3 17 12 24 13 11 13 12 1 7 -12 -5 -12 -4 1 7 9 7 15
21 13 31 -1 9 1 15 5 13 4 -3 14 10 21 29 8 19 18 35 22 35 5 0 6 5 3 10 -3 6
-1 10 5 10 6 0 8 5 5 10 -3 6 -1 10 4 10 6 0 11 6 11 14 0 8 5 18 12 22 7 5 8
3 3 -6 -5 -9 -4 -11 4 -6 9 6 9 11 -1 24 -9 11 -9 13 -1 9 14 -9 36 26 25 38
-4 5 1 5 11 2 11 -4 16 -3 12 3 -3 6 -2 10 4 10 5 0 8 9 6 19 -3 15 0 18 12
14 13 -5 15 -2 10 11 -4 10 -3 15 3 11 6 -3 10 -1 10 5 0 6 5 8 10 5 6 -3 10
1 10 9 0 8 12 27 28 42 15 15 21 23 13 19 -10 -6 -12 -4 -7 4 5 7 15 10 24 6
9 -3 13 -3 10 1 -9 9 9 44 23 44 6 0 7 -5 3 -12 -4 -7 -3 -8 4 -4 6 4 8 14 5
23 -5 13 -2 15 12 10 16 -7 16 -5 4 10 -9 11 -10 14 -1 9 7 -4 12 -2 12 4 0 6
5 8 10 5 6 -3 10 1 10 10 0 9 15 22 33 30 17 8 25 14 17 15 -13 0 -13 2 0 9 8
6 18 7 24 4 5 -4 7 1 3 10 -4 11 -2 14 9 10 7 -3 14 0 14 7 0 6 5 8 10 5 9 -5
14 7 12 26 -1 4 8 5 19 2 13 -4 19 -1 17 8 -2 10 5 13 22 11 20 -2 22 -1 10 7
-8 6 -12 11 -7 11 16 0 23 4 35 19 11 13 12 13 7 1 -4 -10 -2 -9 8 2 8 10 17
15 20 11 4 -3 7 -1 7 5 0 7 7 12 15 12 7 0 18 8 24 18 5 9 13 17 18 17 4 0 7
4 5 9 -2 5 4 4 12 -4 10 -7 16 -8 16 -2 0 11 38 28 53 24 4 -1 7 5 7 13 0 13
4 14 21 4 15 -8 19 -8 15 0 -7 12 35 33 57 28 7 -1 11 4 9 11 -1 8 2 11 8 7
14 -9 42 14 33 28 -3 6 -1 7 6 3 6 -4 9 -12 6 -17 -11 -16 7 -10 22 9 8 10 11
11 7 2 -7 -13 -5 -13 9 -1 9 7 17 10 17 5 0 -5 7 0 15 10 8 11 15 14 15 7 0
-7 5 -9 10 -6 6 4 8 10 6 14 -3 4 11 5 30 3 19 -2 34 0 34 5 0 10 5 12 60 15
19 2 41 7 49 12 10 7 12 5 6 -5 -6 -11 -5 -12 5 -2 10 9 17 10 27 1 10 -8 12
-7 8 4 -5 12 0 15 19 13 14 -2 29 1 32 7 4 6 10 6 17 -1 7 -7 16 -7 29 0z
m-1332 -2116 c0 -5 5 -3 11 5 8 11 12 12 16 2 2 -6 9 -9 15 -6 18 11 278 10
278 -1 0 -5 5 -3 11 5 8 11 12 12 16 2 2 -6 10 -9 15 -6 15 9 157 9 186 0 12
-4 22 -14 22 -23 0 -13 2 -14 17 -2 16 13 16 11 -1 -15 -10 -16 -14 -26 -8
-22 5 3 12 -8 14 -24 3 -17 0 -30 -6 -31 -6 0 -2 -4 9 -9 19 -8 19 -9 1 -9
-13 -1 -16 -5 -9 -13 5 -7 9 -20 8 -28 0 -8 5 -21 11 -27 7 -7 11 -24 10 -38
-2 -14 0 -25 3 -25 4 0 7 -10 8 -22 1 -12 9 -26 18 -31 13 -7 14 -12 4 -23 -9
-11 -9 -14 0 -14 7 0 9 -4 6 -10 -3 -5 -1 -10 4 -10 6 0 11 -9 11 -20 0 -11 4
-20 10 -20 5 0 9 -3 9 -7 -3 -21 2 -33 13 -27 7 5 9 1 6 -13 -4 -14 -1 -20 11
-19 9 1 16 -7 16 -19 0 -11 5 -19 12 -18 8 2 10 -4 6 -14 -4 -10 -2 -14 5 -9
6 3 13 -3 17 -14 3 -11 14 -20 23 -21 10 0 12 -3 5 -5 -15 -7 24 -54 44 -54 8
0 12 -4 9 -8 -3 -5 6 -16 19 -26 14 -10 22 -22 20 -26 -3 -5 5 -6 17 -2 16 4
19 2 13 -8 -6 -10 -4 -12 11 -6 10 4 16 4 12 1 -9 -10 31 -47 42 -40 6 4 10
-1 10 -9 0 -10 6 -13 15 -10 10 4 15 0 15 -12 0 -16 2 -17 10 -4 8 12 10 12
10 -5 0 -17 2 -17 10 -5 8 13 10 12 10 -4 0 -16 2 -17 17 -5 15 12 16 12 10
-4 -4 -11 -3 -16 3 -12 6 3 10 0 11 -7 0 -10 2 -10 6 -1 3 10 8 9 20 -2 8 -8
19 -13 24 -10 5 4 9 2 9 -3 0 -5 7 -9 15 -10 8 -1 22 -3 30 -4 8 -1 15 -5 15
-10 0 -4 5 -8 11 -8 5 0 7 6 3 13 -6 10 -4 10 7 0 7 -7 28 -13 46 -13 18 0 33
-4 33 -10 0 -5 5 -10 11 -10 5 0 7 5 3 11 -3 6 5 3 20 -6 14 -10 26 -13 26 -8
0 5 9 9 20 9 11 0 20 -5 20 -11 0 -6 3 -7 8 0 9 13 52 15 52 2 0 -5 7 -4 15 3
12 10 15 10 15 -1 0 -9 3 -10 8 -4 9 13 82 14 82 1 0 -5 7 -1 16 10 8 10 13
13 9 6 -4 -8 1 -11 17 -8 13 2 22 8 21 14 -1 5 11 8 27 6 16 -2 32 1 35 6 4 7
14 6 27 -1 16 -8 19 -8 13 1 -5 8 -3 11 6 8 7 -2 21 5 31 16 10 12 17 16 18
10 0 -17 28 -25 36 -12 4 7 3 8 -4 4 -7 -4 -12 -3 -12 3 0 5 14 12 30 16 19 4
28 11 23 18 -5 9 -3 9 8 1 11 -9 17 -9 26 1 6 7 9 16 5 21 -4 4 1 4 11 1 9 -4
17 -2 17 4 0 6 9 9 20 6 10 -3 19 -2 18 2 -2 19 3 31 12 26 6 -3 10 -1 10 5 0
6 5 8 10 5 6 -3 10 -1 10 6 0 7 3 10 6 6 8 -8 33 16 27 26 -2 4 3 7 12 7 9 0
13 5 10 10 -3 6 3 10 15 10 12 0 18 5 15 10 -3 6 1 10 9 10 10 0 13 6 9 17 -5
12 -2 15 10 10 12 -4 14 -2 10 10 -4 11 -2 14 5 9 7 -4 12 -2 12 4 0 6 5 8 12
4 7 -4 8 -3 4 5 -5 7 6 24 26 43 18 17 27 28 21 24 -9 -5 -11 -2 -7 8 3 9 10
13 15 10 5 -3 9 2 9 10 0 9 5 16 11 16 5 0 7 5 4 10 -3 6 -1 10 5 10 7 0 10 7
6 15 -3 9 3 19 15 25 11 6 17 15 14 20 -3 5 -1 11 4 14 5 4 8 17 7 31 -2 13 2
23 7 22 6 -1 11 13 12 32 1 18 8 37 15 41 7 5 10 15 6 25 -5 14 -4 16 7 6 12
-9 14 -7 12 13 -2 14 -7 30 -11 37 -5 9 -2 10 11 5 14 -5 15 -4 7 7 -6 7 -7
18 -2 27 4 7 7 32 5 54 -3 28 1 43 13 54 12 9 12 12 2 7 -10 -4 -9 -2 2 8 10
8 15 17 11 20 -3 4 -1 7 5 7 7 0 12 -5 12 -11 0 -8 5 -8 15 1 12 10 15 10 15
-1 0 -11 3 -11 11 1 8 11 12 12 16 2 2 -6 9 -9 15 -6 17 11 118 10 118 -1 0
-5 5 -3 11 5 8 11 12 12 16 2 2 -6 9 -9 15 -6 17 11 358 10 358 -1 0 -5 5 -3
10 5 8 12 11 13 19 1 6 -10 10 -10 16 -1 6 9 10 9 16 -1 6 -9 9 -10 9 -2 0 6
9 11 20 10 11 -1 20 -7 20 -14 0 -7 6 -13 13 -14 9 0 9 -2 0 -5 -8 -4 -9 -13
-3 -30 6 -14 6 -24 0 -24 -9 0 -6 -32 5 -50 3 -6 2 -10 -3 -10 -5 0 -8 -20 -7
-45 0 -25 -2 -50 -6 -57 -4 -7 -3 -21 3 -32 10 -19 9 -19 -5 -8 -13 11 -15 10
-13 -4 2 -10 0 -34 -4 -55 -4 -23 -3 -42 4 -49 6 -7 7 -11 1 -10 -22 5 -27 -1
-15 -15 11 -13 10 -14 -2 -10 -11 5 -14 -2 -13 -30 1 -19 -2 -35 -8 -35 -5 0
-6 -7 -3 -16 3 -9 2 -12 -5 -9 -6 4 -10 1 -8 -6 3 -26 -1 -40 -10 -35 -5 4 -7
-3 -4 -14 3 -13 0 -20 -8 -20 -11 0 -11 -2 1 -10 12 -8 10 -10 -10 -11 -22 0
-23 -1 -6 -8 18 -7 18 -8 2 -14 -10 -4 -14 -12 -10 -18 4 -7 -1 -18 -12 -26
-16 -12 -17 -15 -4 -23 13 -8 12 -10 -3 -10 -10 0 -15 -4 -12 -10 3 -5 1 -10
-4 -10 -6 0 -11 -9 -11 -19 0 -11 -5 -23 -10 -26 -6 -4 -8 -11 -4 -16 3 -5 0
-8 -8 -7 -7 2 -13 -5 -13 -15 0 -10 -9 -25 -19 -33 -14 -10 -16 -14 -5 -14 10
-1 9 -3 -4 -11 -9 -6 -15 -14 -12 -20 4 -5 1 -9 -4 -9 -6 0 -11 -7 -11 -16 0
-8 -4 -13 -9 -10 -12 8 -23 -22 -14 -37 3 -7 3 -9 -1 -5 -11 10 -43 -25 -38
-41 4 -9 1 -12 -6 -7 -7 4 -12 2 -12 -4 0 -6 -4 -9 -9 -5 -6 3 -8 -4 -6 -16 4
-18 2 -19 -12 -7 -10 8 -14 8 -10 1 4 -6 2 -15 -4 -18 -5 -4 -8 -13 -5 -21 3
-8 0 -11 -10 -7 -9 3 -14 -1 -14 -12 0 -9 -4 -13 -10 -10 -5 3 -10 2 -10 -3 0
-13 -43 -57 -63 -65 -10 -4 -16 -10 -14 -14 2 -5 -4 -16 -15 -26 -10 -9 -18
-14 -18 -10 0 5 -5 0 -11 -10 -6 -9 -14 -15 -20 -12 -8 5 -13 -7 -11 -26 1 -4
-6 -6 -15 -5 -9 0 -23 -10 -30 -24 -7 -14 -13 -18 -13 -10 0 13 -2 13 -9 0 -6
-8 -7 -19 -3 -25 3 -5 -3 -3 -13 5 -11 9 -16 10 -11 3 6 -12 -4 -18 -26 -14
-4 0 -5 -6 -2 -14 4 -10 0 -13 -15 -10 -14 2 -21 -1 -21 -11 0 -8 -4 -12 -10
-9 -5 3 -10 1 -10 -4 0 -6 -6 -10 -12 -9 -7 2 -12 -5 -12 -15 2 -13 -1 -15
-11 -7 -9 8 -15 8 -20 0 -3 -6 -11 -7 -17 -4 -7 4 -8 2 -4 -4 4 -7 2 -12 -4
-12 -6 0 -8 -5 -4 -11 4 -8 0 -8 -15 0 -17 9 -20 9 -15 -2 3 -8 -2 -17 -11
-21 -11 -4 -14 -2 -10 7 4 6 0 4 -8 -5 -11 -14 -16 -15 -26 -5 -10 9 -12 9 -9
-3 2 -9 -3 -14 -13 -12 -9 1 -19 -5 -23 -13 -3 -9 -11 -13 -17 -9 -6 3 -14 2
-18 -4 -4 -7 -18 -14 -31 -16 -14 -2 -27 -6 -30 -7 -3 -1 -12 -3 -20 -3 -8 -1
-14 -7 -13 -14 2 -7 -4 -9 -14 -5 -12 5 -14 3 -8 -8 8 -12 6 -12 -8 0 -12 9
-17 10 -17 2 0 -7 -4 -10 -8 -7 -5 3 -25 -1 -46 -8 -21 -7 -48 -13 -60 -12
-11 1 -24 -3 -28 -8 -3 -5 -23 -9 -43 -9 -26 0 -34 -4 -31 -14 4 -11 1 -11
-14 -3 -15 8 -20 8 -21 -2 0 -10 -2 -10 -6 0 -7 18 -23 15 -23 -5 0 -15 -2
-14 -15 3 -9 12 -17 15 -22 9 -5 -6 -15 -10 -23 -10 -8 0 -18 -4 -22 -10 -5
-6 -8 -6 -8 2 0 8 -9 9 -30 3 -36 -10 -38 -10 -66 1 -12 4 -25 5 -28 1 -11
-11 -36 -11 -36 0 0 6 -6 5 -15 -2 -9 -7 -15 -8 -15 -2 0 6 -13 7 -35 2 -23
-5 -33 -4 -29 2 4 6 -2 7 -17 3 -36 -11 -44 -11 -42 0 1 6 -7 11 -18 11 -10 0
-19 -3 -19 -6 0 -3 -9 -6 -20 -6 -11 0 -20 4 -20 8 0 4 -5 8 -11 8 -5 0 -7 -6
-3 -12 6 -9 3 -9 -9 0 -9 8 -21 11 -26 8 -5 -4 -13 -1 -16 5 -4 5 -13 8 -21 5
-7 -3 -20 2 -29 10 -11 12 -15 12 -16 2 0 -10 -2 -10 -6 0 -2 6 -9 12 -14 12
-6 0 -7 -5 -4 -11 5 -7 1 -8 -11 -1 -30 15 -87 34 -109 35 -11 1 -26 7 -33 14
-7 6 -21 10 -31 8 -11 -2 -22 3 -25 12 -5 13 -9 13 -23 2 -9 -8 -14 -9 -10 -3
7 12 -13 24 -40 24 -8 0 -21 6 -29 14 -8 8 -23 13 -34 11 -18 -3 -25 6 -21 28
1 5 -8 5 -20 2 -14 -5 -19 -4 -15 4 5 7 1 8 -10 4 -14 -5 -16 -3 -11 11 4 10
3 15 -3 11 -6 -3 -10 -2 -10 3 0 6 -6 10 -12 9 -33 -1 -49 4 -43 13 6 9 -8 14
-27 11 -5 0 -8 6 -8 14 0 8 -3 14 -7 13 -17 -4 -53 14 -53 27 0 15 -27 28 -41
20 -5 -4 -6 0 -3 8 3 8 0 18 -7 23 -8 4 -10 3 -5 -4 5 -8 2 -10 -8 -6 -9 3
-13 10 -10 15 3 5 -2 9 -11 9 -11 0 -15 5 -12 14 4 10 1 13 -7 10 -8 -3 -20 4
-28 15 -8 12 -18 18 -21 14 -4 -3 -7 1 -7 10 0 8 -9 19 -20 22 -11 4 -18 11
-14 16 3 6 -3 13 -15 16 -11 3 -18 9 -15 14 3 5 -1 9 -9 9 -15 0 -32 27 -28
43 1 5 -8 11 -19 14 -12 3 -19 11 -16 19 3 9 0 11 -11 7 -10 -4 -14 -2 -10 3
3 6 -3 16 -13 24 -10 8 -17 17 -14 22 3 4 0 8 -5 8 -6 0 -11 7 -11 16 0 11 -5
14 -16 10 -15 -6 -15 -4 -3 11 9 11 10 14 2 9 -7 -4 -14 -2 -14 3 -1 6 -2 14
-3 19 0 4 -11 17 -24 30 -12 12 -20 27 -17 32 4 6 -1 10 -9 10 -14 0 -20 12
-17 33 0 4 -4 7 -11 7 -6 0 -9 3 -5 6 3 4 -1 13 -9 21 -8 8 -12 19 -9 24 4 5
0 9 -8 9 -9 0 -13 10 -12 29 1 19 -2 28 -10 24 -7 -2 -15 3 -18 11 -4 9 -1 16
5 16 7 0 3 7 -8 16 -10 8 -13 13 -6 9 6 -3 12 -2 12 4 0 5 -10 13 -21 16 -12
4 -18 10 -12 14 12 9 10 30 -4 39 -6 4 -14 20 -17 36 -3 16 -11 33 -18 38 -10
6 -10 8 2 8 12 0 13 2 1 9 -7 5 -10 14 -7 20 4 6 1 13 -6 16 -7 3 -14 16 -14
30 -1 14 2 22 8 19 6 -4 3 5 -6 19 -13 20 -14 26 -4 30 8 4 7 6 -4 6 -13 1
-18 10 -19 34 -2 91 -6 123 -13 136 -7 10 -5 12 3 6 7 -4 5 5 -5 20 -10 16
-14 29 -8 33 10 7 11 43 2 58 -9 15 11 54 31 62 30 11 141 8 141 -3z m4030
-1905 c0 -5 -5 -10 -11 -10 -5 0 -7 5 -4 10 3 6 8 10 11 10 2 0 4 -4 4 -10z
m-225 -299 c3 -5 2 -12 -3 -15 -5 -3 -9 1 -9 9 0 17 3 19 12 6z m-4570 -39
c-3 -3 -11 0 -18 7 -9 10 -8 11 6 5 10 -3 15 -9 12 -12z m4435 -32 c0 -5 -5
-10 -11 -10 -5 0 -7 5 -4 10 3 6 8 10 11 10 2 0 4 -4 4 -10z"/>
<path d="M4855 5020 c3 -5 8 -10 11 -10 2 0 4 5 4 10 0 6 -5 10 -11 10 -5 0
-7 -4 -4 -10z"/>
</g>
</svg>
